<?xml version="1.0" encoding="UTF-8"?>
<!DOCTYPE svg PUBLIC "-//W3C//DTD SVG 1.1//EN" "http://www.w3.org/Graphics/SVG/1.1/DTD/svg11.dtd">
<!-- Creator: CorelDRAW -->
<svg xmlns="http://www.w3.org/2000/svg" xml:space="preserve" width="6.82666in" height="6.82666in" style="shape-rendering:geometricPrecision; text-rendering:geometricPrecision; image-rendering:optimizeQuality; fill-rule:evenodd; clip-rule:evenodd"
viewBox="0 0 6.82666 6.82666"
 xmlns:xlink="http://www.w3.org/1999/xlink">
 <defs>
  <style type="text/css">
   <![CDATA[
    .fil0 {fill:none}
    .fil1 {fill:#212121;fill-rule:nonzero}
    .fil2 {fill:#66BB6A;fill-rule:nonzero}
   ]]>
  </style>
 </defs>
 <g id="Layer_x0020_1">
  <metadata id="CorelCorpID_0Corel-Layer"/>
  <g id="_370227824">
   <rect id="_370228016" class="fil0" width="6.82666" height="6.82666"/>
   <rect id="_370227776" class="fil0" x="0.853331" y="0.853331" width="5.12" height="5.12"/>
  </g>
  <path class="fil1" d="M3.41333 1.6c0.603819,0 1.15049,0.24476 1.5462,0.640469 0.395709,0.395709 0.640469,0.942382 0.640469,1.5462 0,0.603819 -0.24476,1.15049 -0.640469,1.5462 -0.395709,0.395709 -0.942382,0.640469 -1.5462,0.640469 -0.603819,0 -1.15049,-0.24476 -1.5462,-0.640469 -0.395709,-0.395709 -0.640469,-0.942382 -0.640469,-1.5462 0,-0.603819 0.24476,-1.15049 0.640469,-1.5462 0.395709,-0.395709 0.942382,-0.640469 1.5462,-0.640469zm1.39537 0.791303c-0.357094,-0.357094 -0.850433,-0.577965 -1.39537,-0.577965 -0.544933,0 -1.03827,0.22087 -1.39537,0.577965 -0.357094,0.357094 -0.577965,0.850433 -0.577965,1.39537 0,0.544933 0.22087,1.03827 0.577965,1.39537 0.357094,0.357094 0.850433,0.577965 1.39537,0.577965 0.544933,0 1.03827,-0.22087 1.39537,-0.577965 0.357094,-0.357094 0.577965,-0.850433 0.577965,-1.39537 0,-0.544933 -0.22087,-1.03827 -0.577965,-1.39537z"/>
  <polygon class="fil1" points="3.30667,1.28 3.30667,1.70667 3.09333,1.70667 3.09333,1.28 "/>
  <polygon class="fil1" points="3.73332,1.28 3.73332,1.70667 3.51998,1.70667 3.51998,1.28 "/>
  <path class="fil1" d="M2.84675 0.853331l1.13316 0c0.0587756,0 0.112134,0.0239724 0.150752,0.0625827 0.0386102,0.0386181 0.0625827,0.0919764 0.0625827,0.150752l0 0.106669c0,0.0587717 -0.0239724,0.112142 -0.0625866,0.150748 -0.0386063,0.0386142 -0.0919646,0.0625866 -0.150748,0.0625866l-1.13316 0c-0.0587756,0 -0.112134,-0.0239724 -0.150752,-0.0625827 -0.0386102,-0.0386181 -0.0625827,-0.0919803 -0.0625827,-0.150752l0 -0.106669c0,-0.0587756 0.0239724,-0.112134 0.0625827,-0.150752 0.0386181,-0.0386102 0.0919764,-0.0625827 0.150752,-0.0625827zm1.13316 0.213339l-3.93701e-006 0 0 -3.93701e-006c0,-4.72441e-005 -3.93701e-006,-2.75591e-005 -1.5748e-005,3.93701e-006l-1.13312 0c-1.1811e-005,-3.14961e-005 -1.5748e-005,-5.11811e-005 -1.5748e-005,-3.93701e-006l0 3.93701e-006 -3.93701e-006 0c-4.72441e-005,0 -2.75591e-005,3.93701e-006 3.93701e-006,1.5748e-005l0 0.106626c-3.14961e-005,1.1811e-005 -5.11811e-005,1.9685e-005 -3.93701e-006,1.9685e-005l3.93701e-006 0 0 3.93701e-006c0,4.33071e-005 3.93701e-006,2.75591e-005 1.5748e-005,-3.93701e-006l1.13311 0c1.1811e-005,3.14961e-005 1.9685e-005,4.72441e-005 1.9685e-005,3.93701e-006l0 -3.93701e-006 3.93701e-006 0c4.72441e-005,0 2.75591e-005,-1.1811e-005 -3.93701e-006,-1.9685e-005l0 -0.106626c2.75591e-005,-7.87402e-006 5.11811e-005,-1.5748e-005 3.93701e-006,-1.5748e-005zm-3.93701e-006 0l-1.5748e-005 0 -1.1811e-005 2.75591e-005c-1.1811e-005,3.54331e-005 -3.14961e-005,7.08661e-005 -5.11811e-005,5.11811e-005 -1.9685e-005,-1.9685e-005 1.1811e-005,-3.93701e-005 5.11811e-005,-5.11811e-005l2.75591e-005 -1.1811e-005 0 -1.5748e-005zm-1.13313 0l-1.5748e-005 0 0 1.5748e-005 2.75591e-005 1.1811e-005c3.54331e-005,1.1811e-005 7.08661e-005,3.14961e-005 5.11811e-005,5.11811e-005 -1.9685e-005,1.9685e-005 -3.93701e-005,-1.5748e-005 -5.11811e-005,-5.11811e-005l-1.1811e-005 -2.75591e-005zm1.13313 0.106661l0 -1.9685e-005 -3.14961e-005 -1.1811e-005c-3.54331e-005,-1.5748e-005 -7.08661e-005,-3.14961e-005 -5.11811e-005,-5.11811e-005 1.9685e-005,-1.9685e-005 3.54331e-005,1.1811e-005 5.11811e-005,5.11811e-005l1.1811e-005 3.14961e-005 1.9685e-005 0zm-1.13315 0l1.5748e-005 0 7.87402e-006 -2.3622e-005 7.87402e-006 -7.87402e-006 -3.93701e-006 0c1.1811e-005,-3.14961e-005 2.75591e-005,-7.08661e-005 5.11811e-005,-4.72441e-005 1.9685e-005,1.9685e-005 -1.5748e-005,3.14961e-005 -4.72441e-005,4.72441e-005l-7.87402e-006 7.87402e-006 3.93701e-006 -7.87402e-006 -2.75591e-005 1.1811e-005 0 1.9685e-005z"/>
  <path class="fil2" d="M3.52 2.13333c0,-0.0589094 -0.0477598,-0.106669 -0.106669,-0.106669 -0.0589094,0 -0.106669,0.0477598 -0.106669,0.106669l0 1.65334c0,0.0589094 0.0477598,0.106669 0.106669,0.106669 0.0589094,0 0.106669,-0.0477598 0.106669,-0.106669l0 -1.65334z"/>
  <path class="fil2" d="M4.12303 2.61652c0.0264606,-0.0524646 0.00538189,-0.116457 -0.0470827,-0.142917 -0.0524646,-0.0264606 -0.116457,-0.00538189 -0.142917,0.0470827l-0.614701 1.21806c-0.0264606,0.0524646 -0.00538189,0.116457 0.0470827,0.142917 0.0524646,0.0264606 0.116457,0.00538189 0.142917,-0.0470827l0.614701 -1.21806z"/>
 </g>
</svg>
